<svg xmlns="http://www.w3.org/2000/svg" width="256" height="256" fill="none" viewBox="0 0 256 256" id="layers">
  <rect width="224" height="224" x="16" y="16" fill="#EEE" rx="70"></rect>
  <path fill="#111827" fill-opacity=".2" d="M68.0004 136.744L68.3004 91.7515C68.3529 83.6065 74.0491 76.624 81.9129 75.0677L125.364 66.454C135.804 64.384 145.494 72.5552 145.427 83.3665L145.127 128.366C145.07 136.508 139.374 143.486 131.51 145.046L88.0591 153.66C77.6191 155.73 67.9291 147.559 68.0004 136.744Z"></path>
  <path fill="#111827" fill-opacity=".5" d="M89.2895 154.695L89.5895 109.695C89.6382 101.558 95.3382 94.5791 103.202 93.0191L146.653 84.4091C157.093 82.3391 166.783 90.5066 166.712 101.322L166.412 146.322C166.359 154.463 160.663 161.442 152.799 163.002L109.348 171.615C98.9082 173.682 89.2182 165.514 89.2895 154.703V154.695Z"></path>
  <path fill="#111827" fill-opacity=".8" d="M110.578 172.646L110.878 127.646C110.931 119.501 116.627 112.526 124.491 110.966L167.942 102.352C178.382 100.282 188.072 108.454 188.001 119.265L187.701 164.265C187.648 172.41 181.952 179.389 174.088 180.945L130.637 189.559C120.197 191.629 110.507 183.457 110.575 172.646H110.578Z"></path>
</svg>
